<?xml version="1.0" encoding="UTF-8"?><svg version="1.1" width="16px" height="16px" viewBox="0 0 16.0 16.0" xmlns="http://www.w3.org/2000/svg" xmlns:xlink="http://www.w3.org/1999/xlink"><defs><clipPath id="i0"><path d="M16,0 L16,16 L0,16 L0,0 L16,0 Z"></path></clipPath><clipPath id="i1"><path d="M9.27590013,0 C9.74377314,0 10.1968389,0.164032439 10.5562689,0.463557441 L14.2803688,4.40030733 C14.736354,4.78029498 15,5.34319021 15,5.93674989 L15,9 C15,10.1045695 14.1045695,11 13,11 L2,11 C0.8954305,11 0,10.1045695 0,9 L0,2 C0,0.8954305 0.8954305,0 2,0 Z M9,1 L2,1 C1.44771525,1 1,1.44771525 1,2 L1,9 C1,9.55228475 1.44771525,10 2,10 L13,10 C13.5522847,10 14,9.55228475 14,9 L14,6 L11,6 C9.8954305,6 9,5.1045695 9,4 L9,1 Z M5.14648943,4.9 C5.48120798,4.9 5.80481795,5.02047984 6.09960597,5.28136253 L8.91205805,7.77633851 L10.0365728,6.75957703 C10.3024181,6.52254157 10.60334,6.40586521 10.889217,6.40586521 C11.1525267,6.40586521 11.4321491,6.52254157 11.6917519,6.75077468 L13,7.894 L13,8 C13,8.55228475 12.5522847,9 12,9 L3,9 C2.44771525,9 2,8.55228475 2,8 L2,7.335 L4.2070292,5.28888498 C4.44790609,5.06418453 4.73018438,4.93897344 5.00810444,4.90778456 L5.14648943,4.9 Z M10,1.3 L10,3.999 C10,4.55128475 10.4477153,4.999 11,4.999 L13.438,4.999 L10,1.3 Z M6.25,1.8 C6.94035594,1.8 7.5,2.35964406 7.5,3.05 C7.5,3.74035594 6.94035594,4.3 6.25,4.3 C5.55964406,4.3 5,3.74035594 5,3.05 C5,2.35964406 5.55964406,1.8 6.25,1.8 Z"></path></clipPath></defs><g clip-path="url(#i0)"><g transform="translate(1.0 2.0)"><g clip-path="url(#i1)"><polygon points="0,0 15,0 15,11 0,11 0,0" stroke="none" fill="#FFFFFF" opacity="74%"></polygon></g></g></g></svg>