<?xml version="1.0" encoding="UTF-8"?><svg version="1.1" width="16px" height="16px" viewBox="0 0 16.0 16.0" xmlns="http://www.w3.org/2000/svg" xmlns:xlink="http://www.w3.org/1999/xlink"><defs><clipPath id="i0"><path d="M16,0 L16,16 L0,16 L0,0 L16,0 Z"></path></clipPath><clipPath id="i1"><path d="M8.27590013,0 C8.74377314,0 9.19683893,0.164032439 9.55626893,0.463557441 L13.2803688,4.40030733 C13.736354,4.78029498 14,5.34319021 14,5.93674989 L14,9 C14,10.1045695 13.1045695,11 12,11 L2,11 C0.8954305,11 0,10.1045695 0,9 L0,2 C0,0.8954305 0.8954305,0 2,0 Z M8,1 L2,1 C1.44771525,1 1,1.44771525 1,2 L1,9 C1,9.55228475 1.44771525,10 2,10 L12,10 C12.5522847,10 13,9.55228475 13,9 L13,6 L10,6 C8.8954305,6 8,5.1045695 8,4 L8,1 Z M4.5,5.5 C5.16666667,5.5 6.16666667,6.33333333 7.5,8 C8.5,7.33333333 9.16666667,7 9.5,7 C9.79303869,7 10.6765013,7.46953994 12,8.5 C12,8.83333333 11.8333333,9 11.5,9 L2.5,9 C2,9 2,8.5 2,8.5 C2.88080422,6.57408652 3.89432627,5.5 4.5,5.5 Z M6,3 C6.55228475,3 7,3.44771525 7,4 C7,4.55228475 6.55228475,5 6,5 C5.44771525,5 5,4.55228475 5,4 C5,3.44771525 5.44771525,3 6,3 Z M9,1.3 L9,3.999 C9,4.55128475 9.44771525,4.999 10,4.999 L12.438,4.999 L9,1.3 Z"></path></clipPath></defs><g clip-path="url(#i0)"><g transform="translate(1.0 2.0)"><g clip-path="url(#i1)"><polygon points="0,0 14,0 14,11 0,11 0,0" stroke="none" fill="#FFFFFF" opacity="74%"></polygon></g></g></g></svg>