<?xml version="1.0" encoding="UTF-8"?><svg version="1.1" width="16px" height="16px" viewBox="0 0 16.0 16.0" xmlns="http://www.w3.org/2000/svg" xmlns:xlink="http://www.w3.org/1999/xlink"><defs><clipPath id="i0"><path d="M16,0 L16,16 L0,16 L0,0 L16,0 Z"></path></clipPath><clipPath id="i1"><path d="M5.06325011,0 C5.65680979,0 6.21970502,0.26364602 6.59969267,0.719631201 L10.5364426,5.44373107 C10.8359676,5.80316107 11,6.25622686 11,6.72409987 L11,12 C11,13.1045695 10.1045695,14 9,14 L2,14 C0.8954305,14 0,13.1045695 0,12 L0,2 C0,0.8954305 0.8954305,0 2,0 L5.06325011,0 Z M5,1 L2,1 C1.44771525,1 1,1.44771525 1,2 L1,12 C1,12.5522847 1.44771525,13 2,13 L9,13 C9.55228475,13 10,12.5522847 10,12 L10,7 L7,7 C5.8954305,7 5,6.1045695 5,5 L5,1 Z M6,1.562 L6,5 C6,5.55228475 6.44771525,6 7,6 L9.699,6 L6,1.562 Z"></path></clipPath></defs><g clip-path="url(#i0)"><g transform="translate(3.0 1.0)"><g clip-path="url(#i1)"><polygon points="0,0 11,0 11,14 0,14 0,0" stroke="none" fill="#FFFFFF" opacity="74%"></polygon></g></g></g></svg>