<?xml version="1.0" encoding="UTF-8"?><svg version="1.1" width="16px" height="16px" viewBox="0 0 16.0 16.0" xmlns="http://www.w3.org/2000/svg" xmlns:xlink="http://www.w3.org/1999/xlink"><defs><clipPath id="i0"><path d="M16,0 L16,16 L0,16 L0,0 L16,0 Z"></path></clipPath><clipPath id="i1"><path d="M4,0 C6,0 5.5,1 6.73239368,0.999927519 L11.6389534,0.999987271 C11.757372,0.999991364 11.8777208,0.999995607 12,1 C13.1045695,1 14,1.8954305 14,3 L14,10 C14,11.1045695 13.1045695,12 12,12 L2,12 C0.8954305,12 0,11.1045695 0,10 L0,2 C0,0.8954305 0.8954305,0 2,0 L4,0 Z M13,5 L1,5 L1,10 C1,10.5522847 1.44771525,11 2,11 L12,11 C12.5522847,11 13,10.5522847 13,10 L13,5 Z M4,1 L2,1 C1.44771525,1 1,1.44771525 1,2 L1,4 L13,4 L13,3 C13,2.44771525 12.5522847,2 11.9999884,2 L11.4455093,1.99996413 L7.15562632,1.99992085 C5.73929228,1.99996306 5.36278084,1.71553832 5.09226069,1.45006603 L4.99396008,1.35199493 C4.8,1.16 4.6,1 4,1 Z"></path></clipPath></defs><g clip-path="url(#i0)"><g transform="translate(1.0 2.0)"><g clip-path="url(#i1)"><polygon points="0,0 14,0 14,12 0,12 0,0" stroke="none" fill="#FFFFFF" opacity="74%"></polygon></g></g></g></svg>