<?xml version="1.0" encoding="UTF-8"?><svg version="1.1" width="16px" height="16px" viewBox="0 0 16.0 16.0" xmlns="http://www.w3.org/2000/svg" xmlns:xlink="http://www.w3.org/1999/xlink"><defs><clipPath id="i0"><path d="M16,0 L16,16 L0,16 L0,0 L16,0 Z"></path></clipPath><clipPath id="i1"><path d="M14,5 L14,10 C14,11.1045695 13.1045695,12 12,12 L2,12 C0.8954305,12 0,11.1045695 0,10 L0,5 L14,5 Z M4,0 C6,0 5.5,1 6.73239368,0.999927519 L12,1 C13.1045695,1 14,1.8954305 14,3 L14,4 L0,4 L0,2 C0,0.8954305 0.8954305,0 2,0 L4,0 Z"></path></clipPath></defs><g clip-path="url(#i0)"><g transform="translate(1.0 2.0)"><g clip-path="url(#i1)"><polygon points="0,0 14,0 14,12 0,12 0,0" stroke="none" fill="#FFFFFF" opacity="74%"></polygon></g></g></g></svg>